<svg xmlns="http://www.w3.org/2000/svg" xmlns:xlink="http://www.w3.org/1999/xlink" width="500" zoomAndPan="magnify" viewBox="0 0 375 374.999991" height="500" preserveAspectRatio="xMidYMid meet" version="1.0"><defs><g/><clipPath id="a0053af3ce"><path d="M 108.136719 230.585938 L 335.503906 230.585938 L 335.503906 281.660156 L 108.136719 281.660156 Z M 108.136719 230.585938 " clip-rule="nonzero"/></clipPath><clipPath id="0b23b3250f"><path d="M 32.628906 236.933594 L 275.472656 236.933594 L 275.472656 290.523438 L 32.628906 290.523438 Z M 32.628906 236.933594 " clip-rule="nonzero"/></clipPath><clipPath id="7f4689814e"><path d="M 227 13.023438 L 242 13.023438 L 242 27 L 227 27 Z M 227 13.023438 " clip-rule="nonzero"/></clipPath><clipPath id="b2c166ea82"><path d="M 303.210938 286.753906 L 323.628906 286.753906 L 323.628906 308.390625 L 303.210938 308.390625 Z M 303.210938 286.753906 " clip-rule="nonzero"/></clipPath><clipPath id="06440a81ef"><path d="M 305.757812 293.8125 L 321.300781 293.8125 L 321.300781 308.160156 L 305.757812 308.160156 Z M 305.757812 293.8125 " clip-rule="nonzero"/></clipPath></defs><path fill="#6bc30d" d="M 67.628906 272.914062 C 67.628906 272.914062 68.363281 272.460938 69.753906 271.605469 C 71.148438 270.757812 73.191406 269.46875 75.878906 267.894531 C 81.328125 264.910156 89.242188 260.511719 99.632812 256.339844 C 104.511719 254.339844 109.914062 252.335938 115.789062 250.449219 C 126.371094 247.605469 137.699219 245.265625 149.507812 243.5625 C 164.113281 241.457031 178.289062 240.519531 191.480469 240.519531 C 193.910156 240.519531 196.304688 240.550781 198.664062 240.613281 C 206.609375 240.796875 214.140625 241.296875 221.148438 241.996094 C 221.460938 242.042969 221.769531 242.089844 222.078125 242.140625 C 224 242.441406 225.902344 242.738281 227.785156 243.035156 C 229.652344 243.382812 231.496094 243.765625 233.316406 244.128906 C 247.886719 247.070312 260.65625 251.152344 271.046875 255.277344 C 272.347656 255.792969 273.617188 256.292969 274.851562 256.78125 C 276.074219 257.300781 277.253906 257.839844 278.40625 258.347656 C 279.554688 258.863281 280.667969 259.359375 281.75 259.84375 C 282.832031 260.324219 283.878906 260.785156 284.863281 261.300781 C 288.828125 263.296875 292.257812 264.949219 294.941406 266.535156 C 296.296875 267.296875 297.5 267.976562 298.546875 268.5625 C 299.066406 268.859375 299.546875 269.128906 299.984375 269.378906 C 300.414062 269.644531 300.800781 269.886719 301.148438 270.105469 C 302.535156 270.976562 303.261719 271.433594 303.261719 271.433594 C 303.261719 271.433594 302.488281 271.066406 301.011719 270.367188 C 300.640625 270.195312 300.230469 270 299.773438 269.785156 C 299.308594 269.585938 298.800781 269.371094 298.253906 269.136719 C 297.15625 268.664062 295.890625 268.121094 294.464844 267.511719 C 291.652344 266.222656 288.082031 264.925781 284 263.324219 C 282.984375 262.90625 281.90625 262.546875 280.796875 262.167969 C 279.691406 261.785156 278.550781 261.390625 277.375 260.984375 C 276.199219 260.578125 274.996094 260.148438 273.753906 259.734375 C 272.496094 259.351562 271.210938 258.957031 269.890625 258.554688 C 259.363281 255.304688 246.617188 252.140625 232.273438 249.902344 C 230.480469 249.625 228.667969 249.34375 226.832031 249.058594 C 224.988281 248.839844 223.121094 248.617188 221.234375 248.394531 C 220.835938 248.34375 220.433594 248.296875 220.035156 248.246094 C 219.078125 248.054688 218.101562 247.863281 217.105469 247.671875 C 215.304688 247.402344 213.441406 247.121094 211.527344 246.832031 C 210.566406 246.691406 209.589844 246.546875 208.605469 246.40625 C 208.109375 246.339844 207.613281 246.257812 207.109375 246.199219 C 206.605469 246.152344 206.101562 246.101562 205.589844 246.050781 C 201.511719 245.667969 197.226562 245.179688 192.761719 245.074219 C 191.644531 245.027344 190.519531 244.984375 189.386719 244.941406 C 188.816406 244.921875 188.25 244.902344 187.675781 244.882812 L 186.816406 244.855469 L 185.953125 244.863281 C 183.644531 244.886719 181.304688 244.921875 178.9375 244.972656 C 177.753906 245.003906 176.574219 245.007812 175.40625 245.070312 C 174.242188 245.15625 173.082031 245.238281 171.933594 245.320312 C 169.632812 245.488281 167.367188 245.667969 165.144531 245.855469 C 162.925781 246.117188 160.753906 246.417969 158.625 246.707031 C 156.503906 247.011719 154.414062 247.238281 152.40625 247.660156 C 148.363281 248.382812 144.546875 249.1875 141 250.035156 C 140.105469 250.179688 139.214844 250.324219 138.332031 250.472656 C 124.019531 252.890625 111.324219 256.234375 100.832031 259.601562 C 90.300781 262.898438 82.089844 266.472656 76.371094 268.863281 C 70.746094 271.46875 67.628906 272.914062 67.628906 272.914062 " fill-opacity="1" fill-rule="nonzero"/><path fill="#009bdb" d="M 112.546875 259.457031 C 112.546875 259.457031 112.980469 259.261719 113.804688 258.886719 C 114.214844 258.691406 114.734375 258.488281 115.351562 258.25 C 115.96875 258.011719 116.679688 257.734375 117.476562 257.421875 C 119.082031 256.804688 121.050781 256.050781 123.34375 255.195312 C 125.65625 254.398438 128.320312 253.582031 131.269531 252.652344 C 134.214844 251.765625 137.472656 250.878906 141 250.035156 C 154.605469 247.859375 169.582031 246.527344 185.277344 246.414062 C 185.800781 246.402344 186.324219 246.390625 186.84375 246.378906 C 187.367188 246.390625 187.886719 246.398438 188.40625 246.410156 C 189.445312 246.425781 190.480469 246.445312 191.511719 246.464844 C 193.578125 246.507812 195.628906 246.503906 197.664062 246.578125 C 199.699219 246.679688 201.71875 246.785156 203.722656 246.886719 C 204.722656 246.933594 205.722656 246.984375 206.714844 247.03125 C 207.707031 247.078125 208.691406 247.195312 209.675781 247.269531 C 211.640625 247.433594 213.589844 247.601562 215.519531 247.765625 C 216 247.804688 216.484375 247.84375 216.960938 247.882812 C 217.445312 247.921875 217.917969 247.996094 218.394531 248.050781 C 218.941406 248.113281 219.488281 248.179688 220.035156 248.246094 C 222.507812 248.742188 224.839844 249.222656 227.015625 249.679688 C 230.015625 250.4375 232.714844 251.140625 235.078125 251.769531 C 235.671875 251.929688 236.242188 252.066406 236.789062 252.238281 C 237.328125 252.410156 237.851562 252.574219 238.351562 252.730469 C 239.351562 253.046875 240.265625 253.335938 241.085938 253.601562 C 242.71875 254.132812 243.988281 254.546875 244.847656 254.828125 C 245.710938 255.105469 246.152344 255.285156 246.152344 255.285156 C 246.152344 255.285156 245.683594 255.210938 244.78125 255.117188 C 243.878906 255.015625 242.554688 254.859375 240.851562 254.660156 C 240 254.554688 239.058594 254.4375 238.023438 254.308594 C 237.507812 254.242188 236.972656 254.171875 236.414062 254.101562 C 235.855469 254.027344 235.265625 253.992188 234.660156 253.929688 C 232.242188 253.703125 229.492188 253.4375 226.46875 253.113281 C 223.425781 252.917969 220.101562 252.667969 216.546875 252.390625 C 214.761719 252.3125 212.917969 252.230469 211.019531 252.144531 C 210.070312 252.097656 209.109375 252.046875 208.132812 252 C 207.644531 251.976562 207.15625 251.9375 206.660156 251.925781 C 206.167969 251.917969 205.667969 251.90625 205.167969 251.898438 C 201.824219 251.859375 198.355469 251.703125 194.769531 251.703125 C 194.054688 251.703125 193.335938 251.710938 192.609375 251.722656 C 191.523438 251.722656 190.425781 251.722656 189.320312 251.722656 C 188.765625 251.71875 188.210938 251.71875 187.652344 251.714844 L 186.816406 251.710938 L 185.976562 251.738281 C 183.730469 251.8125 181.453125 251.875 179.144531 251.921875 C 177.996094 251.953125 176.847656 251.949219 175.710938 251.996094 C 174.574219 252.058594 173.445312 252.121094 172.324219 252.183594 C 170.082031 252.296875 167.871094 252.398438 165.695312 252.488281 C 163.53125 252.652344 161.398438 252.816406 159.3125 252.976562 C 157.226562 253.148438 155.171875 253.222656 153.1875 253.476562 C 145.222656 254.238281 138.046875 255.132812 132.03125 256.042969 C 129.03125 256.539062 126.296875 256.925781 123.902344 257.324219 C 121.523438 257.78125 119.464844 258.160156 117.78125 258.464844 C 116.9375 258.617188 116.183594 258.75 115.535156 258.863281 C 114.882812 258.976562 114.332031 259.070312 113.890625 259.171875 C 113.011719 259.359375 112.546875 259.457031 112.546875 259.457031 " fill-opacity="1" fill-rule="nonzero"/><path fill="#00770b" d="M 141 250.035156 C 144.546875 249.1875 148.363281 248.382812 152.40625 247.660156 C 154.414062 247.238281 156.503906 247.011719 158.625 246.707031 C 160.753906 246.417969 162.925781 246.117188 165.144531 245.855469 C 167.367188 245.667969 169.632812 245.488281 171.933594 245.320312 C 173.082031 245.238281 174.242188 245.15625 175.40625 245.070312 C 176.574219 245.007812 177.753906 245.003906 178.9375 244.972656 C 181.304688 244.921875 183.644531 244.886719 185.953125 244.863281 L 186.816406 244.855469 L 187.675781 244.882812 C 188.25 244.902344 188.816406 244.921875 189.386719 244.941406 C 190.519531 244.984375 191.644531 245.027344 192.761719 245.074219 C 197.226562 245.179688 201.511719 245.667969 205.589844 246.050781 C 206.101562 246.101562 206.605469 246.152344 207.109375 246.199219 C 207.613281 246.257812 208.109375 246.339844 208.605469 246.40625 C 209.589844 246.546875 210.566406 246.691406 211.527344 246.832031 C 213.441406 247.121094 215.304688 247.402344 217.105469 247.671875 C 218.101562 247.863281 219.078125 248.054688 220.035156 248.246094 C 219.488281 248.179688 218.941406 248.113281 218.394531 248.050781 C 217.917969 247.996094 217.445312 247.921875 216.960938 247.882812 C 216.484375 247.84375 216 247.804688 215.519531 247.765625 C 213.589844 247.601562 211.640625 247.433594 209.675781 247.269531 C 208.691406 247.195312 207.707031 247.078125 206.714844 247.03125 C 205.722656 246.984375 204.722656 246.933594 203.722656 246.886719 C 201.71875 246.785156 199.699219 246.679688 197.664062 246.578125 C 195.628906 246.503906 193.578125 246.507812 191.511719 246.464844 C 190.480469 246.445312 189.445312 246.425781 188.40625 246.410156 C 187.886719 246.398438 187.367188 246.390625 186.84375 246.378906 C 186.324219 246.390625 185.800781 246.402344 185.277344 246.414062 C 169.582031 246.527344 154.605469 247.859375 141 250.035156 " fill-opacity="1" fill-rule="nonzero"/><g clip-path="url(#a0053af3ce)"><path fill="#df1b7d" d="M 335.503906 281.597656 C 335.503906 281.597656 332.675781 279.769531 327.570312 276.472656 C 322.355469 273.378906 314.882812 268.792969 305.148438 264.195312 C 295.453125 259.535156 283.640625 254.636719 270.171875 250.402344 C 269.332031 250.128906 268.488281 249.855469 267.640625 249.582031 C 267.515625 249.542969 267.390625 249.507812 267.265625 249.46875 C 266.859375 249.3125 266.4375 249.15625 265.996094 249.007812 C 264.460938 248.457031 262.757812 247.84375 260.890625 247.175781 C 259.953125 246.84375 258.980469 246.488281 257.960938 246.140625 C 256.933594 245.820312 255.863281 245.488281 254.757812 245.148438 C 253.648438 244.804688 252.503906 244.453125 251.316406 244.085938 C 250.726562 243.90625 250.125 243.71875 249.511719 243.535156 C 249.207031 243.441406 248.898438 243.34375 248.585938 243.25 C 248.273438 243.167969 247.960938 243.085938 247.640625 243 C 245.09375 242.335938 242.398438 241.632812 239.570312 240.894531 C 228.203125 238.175781 214.410156 235.773438 198.921875 234.753906 C 193.785156 234.398438 188.457031 234.207031 182.980469 234.207031 C 171.980469 234.207031 160.386719 234.96875 148.519531 236.679688 C 135.863281 238.503906 123.78125 241.265625 112.625 244.707031 C 111.847656 244.878906 111.167969 245.027344 110.589844 245.15625 C 109.8125 245.328125 109.230469 245.5 108.835938 245.597656 C 108.441406 245.699219 108.238281 245.753906 108.238281 245.753906 C 108.238281 245.753906 108.433594 245.675781 108.8125 245.523438 C 109.191406 245.378906 109.753906 245.136719 110.503906 244.871094 C 112.011719 244.351562 114.234375 243.589844 117.097656 242.609375 C 118.535156 242.136719 120.121094 241.542969 121.898438 241.058594 C 123.667969 240.550781 125.597656 239.996094 127.664062 239.402344 C 128.703125 239.105469 129.773438 238.800781 130.882812 238.488281 C 132.003906 238.222656 133.15625 237.945312 134.34375 237.660156 C 136.722656 237.101562 139.238281 236.492188 141.890625 235.90625 C 152.527344 233.726562 165.378906 231.824219 179.765625 231.128906 C 183.605469 230.941406 187.550781 230.839844 191.59375 230.839844 C 202.683594 230.839844 214.460938 231.601562 226.554688 233.363281 C 227.585938 233.507812 228.613281 233.652344 229.636719 233.796875 C 230.660156 233.980469 231.675781 234.164062 232.6875 234.347656 C 234.710938 234.71875 236.722656 235.089844 238.71875 235.457031 C 239.722656 235.625 240.703125 235.863281 241.6875 236.085938 C 242.671875 236.308594 243.648438 236.53125 244.625 236.753906 C 246.570312 237.210938 248.511719 237.625 250.414062 238.117188 C 252.3125 238.640625 254.191406 239.15625 256.050781 239.671875 C 257.910156 240.191406 259.757812 240.675781 261.554688 241.289062 C 263.351562 241.875 265.132812 242.453125 266.894531 243.023438 C 267.769531 243.316406 268.648438 243.589844 269.511719 243.894531 C 270.367188 244.214844 271.222656 244.535156 272.070312 244.847656 C 285.652344 249.816406 297.359375 255.625 306.785156 261.132812 C 309.128906 262.542969 311.363281 263.871094 313.445312 265.171875 C 315.488281 266.539062 317.417969 267.828125 319.21875 269.035156 C 321.035156 270.210938 322.632812 271.453125 324.128906 272.550781 C 325.617188 273.660156 326.972656 274.671875 328.199219 275.582031 C 330.574219 277.492188 332.386719 279.015625 333.625 280.03125 C 334.855469 281.058594 335.503906 281.597656 335.503906 281.597656 " fill-opacity="1" fill-rule="nonzero"/></g><g clip-path="url(#0b23b3250f)"><path fill="#fdc800" d="M 32.628906 290.53125 C 32.628906 290.53125 33.296875 289.921875 34.566406 288.765625 C 35.203125 288.1875 35.996094 287.476562 36.925781 286.628906 C 37.394531 286.210938 37.898438 285.757812 38.4375 285.269531 C 38.707031 285.027344 38.988281 284.777344 39.273438 284.519531 C 39.417969 284.390625 39.5625 284.261719 39.710938 284.128906 C 39.867188 284 40.023438 283.875 40.179688 283.746094 C 41.453125 282.714844 42.863281 281.570312 44.410156 280.316406 C 45.1875 279.691406 45.996094 279.039062 46.839844 278.359375 C 47.683594 277.683594 48.609375 277.050781 49.542969 276.359375 C 51.429688 275 53.429688 273.507812 55.597656 272 C 57.8125 270.558594 60.15625 269.035156 62.613281 267.433594 C 72.574219 261.242188 85.035156 254.726562 99.582031 249.195312 C 103.761719 247.597656 108.117188 246.097656 112.625 244.707031 C 113.9375 244.417969 115.53125 244.066406 117.382812 243.65625 C 118.859375 243.34375 120.480469 242.921875 122.289062 242.625 C 124.09375 242.292969 126.050781 241.933594 128.152344 241.542969 C 129.203125 241.351562 130.289062 241.148438 131.40625 240.941406 C 132.535156 240.777344 133.699219 240.609375 134.898438 240.4375 C 137.292969 240.09375 139.816406 239.703125 142.46875 239.332031 C 153.113281 238.035156 165.820312 237.027344 179.914062 236.996094 C 180.296875 236.992188 180.6875 236.992188 181.074219 236.992188 C 194.851562 236.992188 209.914062 237.964844 225.539062 240.242188 C 226.546875 240.378906 227.546875 240.519531 228.546875 240.65625 C 229.539062 240.832031 230.53125 241.007812 231.515625 241.179688 C 233.492188 241.523438 235.453125 241.863281 237.402344 242.203125 C 238.378906 242.351562 239.339844 242.574219 240.300781 242.773438 C 241.261719 242.976562 242.214844 243.175781 243.167969 243.378906 C 245.074219 243.785156 246.972656 244.148438 248.839844 244.582031 C 250.699219 245.039062 252.542969 245.496094 254.371094 245.945312 C 256.195312 246.398438 258.015625 246.808594 259.78125 247.347656 C 261.554688 247.847656 263.3125 248.347656 265.050781 248.839844 C 265.789062 249.054688 266.53125 249.253906 267.265625 249.46875 C 268.28125 249.859375 269.199219 250.253906 270.03125 250.585938 C 271.1875 251.0625 272.171875 251.46875 272.964844 251.792969 C 274.546875 252.449219 275.375 252.796875 275.375 252.796875 C 275.375 252.796875 274.511719 252.546875 272.863281 252.074219 C 272.042969 251.835938 271.023438 251.542969 269.824219 251.195312 C 268.621094 250.855469 267.25 250.410156 265.664062 250.042969 C 264.09375 249.644531 262.34375 249.203125 260.429688 248.722656 C 259.476562 248.480469 258.480469 248.230469 257.441406 247.96875 C 256.398438 247.746094 255.3125 247.511719 254.1875 247.269531 C 253.0625 247.027344 251.902344 246.777344 250.699219 246.519531 C 250.101562 246.390625 249.496094 246.257812 248.875 246.125 C 248.566406 246.058594 248.257812 245.988281 247.941406 245.921875 C 247.628906 245.867188 247.308594 245.808594 246.988281 245.75 C 244.425781 245.292969 241.71875 244.808594 238.878906 244.304688 C 233.453125 243.425781 227.519531 242.628906 221.148438 241.996094 C 220.492188 241.894531 219.835938 241.792969 219.179688 241.691406 C 218.695312 241.621094 218.207031 241.53125 217.71875 241.476562 C 217.226562 241.421875 216.734375 241.363281 216.242188 241.308594 C 214.265625 241.089844 212.273438 240.867188 210.261719 240.640625 C 209.257812 240.539062 208.25 240.398438 207.230469 240.332031 C 206.210938 240.261719 205.191406 240.191406 204.160156 240.121094 C 202.109375 239.984375 200.035156 239.847656 197.949219 239.707031 C 195.863281 239.609375 193.757812 239.589844 191.636719 239.53125 C 190.578125 239.507812 189.511719 239.484375 188.445312 239.460938 C 187.914062 239.453125 187.378906 239.441406 186.84375 239.429688 C 186.308594 239.4375 185.773438 239.449219 185.238281 239.460938 C 168.058594 239.582031 151.734375 241.578125 137.21875 244.714844 C 129.539062 246.367188 122.367188 248.332031 115.789062 250.449219 C 110.871094 251.769531 106.121094 253.195312 101.554688 254.722656 C 87.148438 259.511719 74.582031 265.101562 64.347656 270.449219 C 61.808594 271.832031 59.390625 273.148438 57.105469 274.394531 C 54.851562 275.703125 52.761719 277 50.78125 278.179688 C 49.800781 278.78125 48.824219 279.324219 47.933594 279.914062 C 47.039062 280.507812 46.179688 281.078125 45.359375 281.621094 C 43.707031 282.714844 42.199219 283.710938 40.84375 284.605469 C 35.558594 288.417969 32.628906 290.53125 32.628906 290.53125 " fill-opacity="1" fill-rule="nonzero"/></g><path fill="#6a9900" d="M 115.789062 250.449219 C 122.367188 248.332031 129.539062 246.367188 137.21875 244.714844 C 151.734375 241.578125 168.058594 239.582031 185.238281 239.460938 C 185.773438 239.449219 186.308594 239.4375 186.84375 239.429688 C 187.378906 239.441406 187.914062 239.453125 188.445312 239.460938 C 189.511719 239.484375 190.578125 239.507812 191.636719 239.53125 C 193.757812 239.589844 195.863281 239.609375 197.949219 239.707031 C 200.035156 239.847656 202.109375 239.984375 204.160156 240.121094 C 205.191406 240.191406 206.210938 240.261719 207.230469 240.332031 C 208.25 240.398438 209.257812 240.539062 210.261719 240.640625 C 212.273438 240.867188 214.265625 241.089844 216.242188 241.308594 C 216.734375 241.363281 217.226562 241.421875 217.71875 241.476562 C 218.207031 241.53125 218.695312 241.621094 219.179688 241.691406 C 219.835938 241.792969 220.492188 241.894531 221.148438 241.996094 C 214.140625 241.296875 206.609375 240.796875 198.664062 240.613281 C 196.304688 240.550781 193.910156 240.519531 191.480469 240.519531 C 178.289062 240.519531 164.113281 241.457031 149.507812 243.5625 C 137.699219 245.265625 126.371094 247.605469 115.789062 250.449219 " fill-opacity="1" fill-rule="nonzero"/><path fill="#dd1500" d="M 267.265625 249.46875 C 266.53125 249.253906 265.789062 249.054688 265.050781 248.839844 C 263.3125 248.347656 261.554688 247.847656 259.78125 247.347656 C 258.015625 246.808594 256.195312 246.398438 254.371094 245.945312 C 252.542969 245.496094 250.699219 245.039062 248.839844 244.582031 C 246.972656 244.148438 245.074219 243.785156 243.167969 243.378906 C 242.214844 243.175781 241.261719 242.976562 240.300781 242.773438 C 239.339844 242.574219 238.378906 242.351562 237.402344 242.203125 C 235.453125 241.863281 233.492188 241.523438 231.515625 241.179688 C 230.53125 241.007812 229.539062 240.832031 228.546875 240.65625 C 227.546875 240.519531 226.546875 240.378906 225.539062 240.242188 C 209.914062 237.964844 194.851562 236.992188 181.074219 236.992188 C 180.6875 236.992188 180.296875 236.992188 179.914062 236.996094 C 165.820312 237.027344 153.113281 238.035156 142.46875 239.332031 C 139.816406 239.703125 137.292969 240.09375 134.898438 240.4375 C 133.699219 240.609375 132.535156 240.777344 131.40625 240.941406 C 130.289062 241.148438 129.203125 241.351562 128.152344 241.542969 C 126.050781 241.933594 124.09375 242.292969 122.289062 242.625 C 120.480469 242.921875 118.859375 243.34375 117.382812 243.65625 C 115.53125 244.066406 113.9375 244.417969 112.625 244.707031 C 123.78125 241.265625 135.863281 238.503906 148.519531 236.679688 C 160.386719 234.96875 171.980469 234.207031 182.980469 234.207031 C 188.457031 234.207031 193.785156 234.398438 198.921875 234.753906 C 214.410156 235.773438 228.203125 238.175781 239.570312 240.894531 C 242.398438 241.632812 245.09375 242.335938 247.640625 243 C 247.960938 243.085938 248.273438 243.167969 248.585938 243.25 C 248.898438 243.34375 249.207031 243.441406 249.511719 243.535156 C 250.125 243.71875 250.726562 243.90625 251.316406 244.085938 C 252.503906 244.453125 253.648438 244.804688 254.757812 245.148438 C 255.863281 245.488281 256.933594 245.820312 257.960938 246.140625 C 258.980469 246.488281 259.953125 246.84375 260.890625 247.175781 C 262.757812 247.84375 264.460938 248.457031 265.996094 249.007812 C 266.4375 249.15625 266.859375 249.3125 267.265625 249.46875 " fill-opacity="1" fill-rule="nonzero"/><path fill="#009bdb" d="M 193.210938 51.285156 C 191.644531 49.671875 188.5625 54.328125 188.078125 53.824219 C 187.003906 52.710938 192.199219 45.363281 190.105469 44.425781 C 188.03125 43.496094 186.292969 51.867188 185.355469 51.398438 C 184.050781 50.75 186.828125 40.820312 185.367188 40.316406 C 182.949219 39.476562 182.460938 50.566406 181.695312 50.835938 C 179.734375 51.53125 181.757812 43.425781 179.507812 43.136719 C 177.875 42.925781 178.492188 50.289062 177.714844 53.96875 C 177.347656 55.6875 173.660156 48.34375 172.523438 51.84375 C 172.148438 53.003906 174.613281 57.015625 175.011719 60.015625 C 175.253906 61.820312 175.332031 63.480469 175.144531 65.183594 C 174.808594 67.566406 173.617188 72.863281 169.429688 78.28125 C 168.234375 79.832031 167.421875 81.289062 166.894531 82.671875 L 166.894531 82.675781 C 165.976562 84 165.144531 85.21875 164.363281 86.371094 L 162.789062 85.792969 C 162.789062 85.792969 158.371094 94.367188 156.175781 96.585938 C 155.679688 97.085938 154.910156 97.792969 154.019531 98.585938 C 155.140625 91.90625 154.773438 86.382812 149.222656 82.742188 C 146.539062 80.984375 143.207031 74.554688 141.167969 73.152344 C 140.511719 72.699219 139.960938 72.359375 139.453125 72.09375 C 139.722656 71.214844 139.882812 70.382812 139.917969 69.609375 C 140.363281 59.128906 128.460938 60.070312 128.460938 60.070312 C 132.046875 61.855469 132.582031 64.164062 129.746094 65.324219 C 123.945312 67.699219 116.648438 70.480469 110.636719 81.488281 C 108.210938 85.929688 106.957031 90.820312 107.585938 94.402344 C 106.011719 93.96875 104.300781 93.089844 103.84375 91.316406 C 103.84375 91.316406 102 98 110.863281 99.046875 C 110.863281 99.046875 107.386719 100.851562 110.976562 106.421875 C 110.976562 106.421875 111.203125 104.289062 112.257812 102.328125 C 113.757812 105.167969 116.859375 107.6875 119.800781 109.605469 C 125.386719 113.242188 131.277344 113.871094 131.277344 113.871094 C 132.976562 114.3125 134.71875 114.59375 136.453125 114.671875 C 136.3125 114.800781 136.175781 114.933594 136.039062 115.0625 C 134.101562 116.058594 128.980469 119.171875 124.640625 126.03125 C 124.640625 126.03125 120.515625 134.789062 118.714844 140.011719 C 118.714844 140.011719 119.058594 140.402344 119.644531 141.039062 C 119.484375 141.476562 119.335938 141.894531 119.199219 142.289062 C 118.050781 143.96875 117.210938 146.183594 116.859375 149.167969 C 116.058594 155.964844 113.203125 160.585938 111.777344 162.527344 C 110.71875 163.875 109.503906 165.007812 108.066406 166.128906 C 105.679688 167.996094 101.109375 169.152344 100.566406 170.242188 C 98.925781 173.535156 106.710938 170.855469 105.765625 172.34375 C 103.75 175.515625 98.152344 180.351562 99.464844 181.339844 C 101.277344 182.703125 105.503906 175.492188 106.421875 177.359375 C 106.78125 178.085938 99.367188 186.359375 101.683594 187.445312 C 103.082031 188.101562 108.042969 179.0625 109.433594 179.507812 C 110.429688 179.828125 105.816406 187.03125 107.953125 187.8125 C 110.105469 188.597656 111.53125 179.71875 113.078125 179.671875 C 113.777344 179.652344 112.722656 185.132812 114.972656 185.070312 C 115.625 185.050781 115.796875 183.394531 116.164062 178.757812 C 116.492188 174.652344 118.007812 174.09375 118.558594 169.125 C 118.601562 168.722656 119.304688 167.613281 120.242188 166.246094 C 120.429688 166.019531 120.617188 165.785156 120.8125 165.542969 C 124.609375 160.785156 127.136719 156.398438 128.796875 152.652344 C 128.976562 152.417969 129.160156 152.160156 129.355469 151.878906 C 129.652344 151.453125 129.9375 151.039062 130.214844 150.628906 C 130.929688 151.058594 131.585938 151.367188 132.148438 151.496094 C 132.148438 151.496094 135.921875 143.261719 139.542969 146.8125 C 140.078125 147.582031 140.5625 148.535156 141.121094 149.511719 C 143.742188 154.089844 143.855469 158.789062 143.246094 164.824219 C 142.703125 167.042969 141.707031 169.808594 139.945312 173.144531 C 136.40625 179.84375 137.148438 183.949219 139.375 188.308594 C 138.242188 195.535156 136.625 203.671875 134.75 206.566406 C 131.105469 212.195312 131 219.722656 131 219.722656 C 131 219.722656 131.335938 220.019531 131.925781 220.472656 C 131.066406 223.96875 130.546875 227.621094 128.671875 230.921875 C 127.78125 232.480469 126.460938 233.878906 123.910156 237.039062 C 120.566406 241.179688 122.378906 244.082031 125.480469 244.550781 C 126.503906 244.707031 128.203125 245.386719 129.292969 246.097656 C 134.441406 249.449219 142.050781 251.210938 142.960938 249.054688 C 144.132812 246.28125 140.152344 243.894531 136.851562 240.761719 C 132.089844 236.238281 137.523438 230.785156 141.027344 224.847656 C 142.210938 225.058594 143.425781 225.105469 144.625 224.90625 C 147.519531 224.425781 151.011719 210.285156 151.011719 210.285156 L 150.074219 218.140625 C 150.074219 218.140625 150.867188 218.546875 152.113281 219.121094 C 152.722656 222.941406 153.925781 226.75 153.519531 230.820312 C 153.339844 232.601562 152.703125 234.414062 151.652344 238.339844 C 150.277344 243.476562 153.109375 245.394531 156.140625 244.570312 C 157.140625 244.296875 158.953125 244.371094 160.253906 244.4375 C 167.121094 244.808594 173.992188 243.949219 173.949219 241.609375 C 173.894531 238.601562 169.285156 238.03125 164.996094 236.5 C 159.519531 234.546875 161.042969 228.699219 162.015625 222.632812 C 163.785156 222.957031 165.296875 222.941406 166.136719 222.289062 C 166.136719 222.289062 169.148438 205.796875 171.683594 195.886719 C 172.664062 192.054688 173.332031 189.132812 173.734375 186.960938 C 175.476562 183.425781 177.148438 179.90625 178.269531 176.152344 C 182.460938 164.265625 177.796875 151.351562 171.539062 138.070312 C 169.53125 133.804688 168.621094 129.261719 168.308594 125.0625 L 168.308594 125.058594 C 168.308594 125.058594 168.15625 110.960938 174.5625 102.308594 C 179.324219 95.871094 179.976562 91.050781 179.976562 91.050781 L 178.160156 89.144531 C 180.402344 84.953125 182.792969 78.445312 183.71875 69.324219 C 183.75 69.015625 183.777344 68.71875 183.804688 68.425781 C 184.089844 66.792969 184.363281 65.511719 184.613281 65.191406 C 187.695312 61.253906 187.007812 59.796875 189.644531 56.632812 C 192.625 53.058594 193.667969 51.753906 193.210938 51.285156 " fill-opacity="1" fill-rule="nonzero"/><path fill="#df1b7d" d="M 282.402344 139.191406 C 270.390625 138.515625 273.320312 123.773438 264.550781 120.039062 C 264.4375 119.5 264.214844 118.976562 263.871094 118.5 C 263.359375 117.789062 262.65625 117.296875 261.882812 117.035156 C 261.8125 116.585938 261.640625 116.148438 261.359375 115.757812 C 260.738281 114.898438 259.742188 114.46875 258.753906 114.53125 C 258.660156 114.320312 258.554688 114.125 258.445312 113.945312 C 252.433594 104.175781 242.40625 102.101562 236.539062 104.660156 C 233.96875 105.78125 231.34375 107.753906 228.777344 111.105469 C 228.667969 111.246094 228.050781 112.207031 230.132812 115.082031 C 229.148438 116.542969 228.171875 117.882812 227.089844 118.777344 C 224.054688 121.289062 222.980469 124.574219 223.457031 128.238281 C 222.582031 127.457031 221.816406 126.75 221.351562 126.273438 C 219.597656 124.464844 216.09375 117.519531 216.09375 117.519531 L 214.820312 117.976562 C 214.195312 117.042969 213.535156 116.050781 212.804688 114.976562 L 212.804688 114.972656 C 212.390625 113.855469 211.742188 112.671875 210.789062 111.414062 C 207.453125 107.015625 206.527344 102.734375 206.273438 100.808594 C 206.132812 99.433594 206.207031 98.097656 206.414062 96.644531 C 206.761719 94.226562 208.773438 91.003906 208.480469 90.066406 C 207.589844 87.234375 204.5625 93.132812 204.28125 91.742188 C 203.679688 88.773438 204.230469 82.835938 202.910156 82.996094 C 201.09375 83.210938 202.671875 89.765625 201.089844 89.191406 C 200.476562 88.964844 200.160156 80.019531 198.203125 80.679688 C 197.023438 81.074219 199.191406 89.105469 198.136719 89.617188 C 197.375 89.988281 196.03125 83.222656 194.351562 83.960938 C 192.660156 84.703125 196.796875 90.664062 195.921875 91.554688 C 195.527344 91.957031 193.074219 88.179688 191.796875 89.472656 C 191.429688 89.84375 192.257812 90.90625 194.636719 93.808594 C 196.746094 96.378906 196.175781 97.550781 198.632812 100.746094 C 198.835938 101.007812 199.046875 102.042969 199.265625 103.363281 C 199.285156 103.597656 199.304688 103.839844 199.328125 104.089844 C 200.011719 111.453125 201.894531 116.71875 203.671875 120.113281 L 202.195312 121.640625 C 202.195312 121.640625 202.683594 125.535156 206.480469 130.757812 C 211.585938 137.785156 211.363281 149.152344 211.363281 149.152344 L 211.363281 149.15625 C 211.082031 152.542969 210.316406 156.199219 208.664062 159.625 C 203.523438 170.292969 199.804688 179.550781 202.085938 185.976562 C 202.296875 187.796875 202.703125 189.527344 203.242188 191.207031 C 204.191406 195.015625 205.761719 200.523438 208.101562 206.472656 C 211.101562 214.078125 212.347656 227.617188 212.347656 227.617188 C 212.996094 228.128906 214.285156 228.496094 215.882812 228.769531 C 216.609375 233.351562 217.414062 237.621094 213.246094 239.070312 C 209.773438 240.269531 206.054688 240.699219 205.988281 243.125 C 205.9375 245.011719 211.472656 245.753906 217.015625 245.503906 C 218.066406 245.457031 219.527344 245.410156 220.332031 245.636719 C 222.769531 246.324219 225.066406 244.796875 223.996094 240.644531 C 223.175781 237.472656 222.675781 236.003906 222.542969 234.566406 C 222.382812 232.808594 222.59375 231.117188 222.90625 229.453125 C 225.886719 229.621094 228.558594 229.691406 229.515625 229.859375 C 230.554688 230.039062 231.609375 229.988281 232.636719 229.792969 C 235.417969 234.625 239.800781 239.078125 235.917969 242.703125 C 233.230469 245.207031 230.003906 247.101562 230.929688 249.347656 C 231.648438 251.09375 237.800781 249.726562 241.976562 247.058594 C 242.859375 246.492188 244.234375 245.957031 245.0625 245.839844 C 247.570312 245.480469 249.050781 243.15625 246.382812 239.792969 C 244.347656 237.222656 243.292969 236.085938 242.585938 234.824219 C 241.058594 232.085938 240.683594 229.0625 239.988281 226.175781 C 240.273438 225.949219 240.4375 225.808594 240.4375 225.808594 C 240.4375 225.808594 240.40625 219.792969 237.53125 215.269531 C 234.660156 210.742188 235.832031 196.230469 235.832031 196.230469 C 236.222656 194.070312 235.933594 191.617188 234.507812 188.351562 C 231.304688 181 231.199219 175.292969 231.199219 175.140625 C 231.417969 172.992188 231.984375 171.011719 233.121094 169.066406 C 233.578125 168.285156 233.972656 167.523438 234.410156 166.902344 C 237.359375 164.066406 240.34375 170.734375 240.34375 170.734375 C 240.796875 170.632812 241.332031 170.390625 241.910156 170.046875 C 242.132812 170.378906 242.359375 170.714844 242.59375 171.0625 C 242.75 171.292969 242.898438 171.5 243.039062 171.6875 C 244.351562 174.722656 246.359375 178.277344 249.390625 182.144531 C 249.542969 182.339844 249.695312 182.53125 249.84375 182.714844 C 250.589844 183.824219 251.148438 184.722656 251.183594 185.050781 C 251.589844 189.058594 252.808594 189.523438 253.042969 192.832031 C 253.308594 196.574219 253.433594 197.917969 253.957031 197.933594 C 255.773438 198 254.960938 193.574219 255.527344 193.59375 C 256.773438 193.644531 257.859375 200.816406 259.601562 200.195312 C 261.332031 199.582031 257.660156 193.738281 258.46875 193.488281 C 259.589844 193.140625 263.527344 200.464844 264.660156 199.945312 C 266.539062 199.085938 260.617188 192.359375 260.910156 191.777344 C 261.664062 190.277344 265.023438 196.125 266.492188 195.039062 C 267.5625 194.25 263.082031 190.308594 261.476562 187.734375 C 260.726562 186.527344 266.984375 188.746094 265.683594 186.078125 C 265.253906 185.191406 261.578125 184.230469 259.664062 182.707031 C 258.515625 181.792969 257.539062 180.871094 256.699219 179.773438 C 255.558594 178.199219 253.289062 174.453125 252.695312 168.964844 C 252.429688 166.554688 251.769531 164.761719 250.851562 163.398438 C 250.746094 163.078125 250.628906 162.742188 250.503906 162.386719 C 250.980469 161.878906 251.257812 161.5625 251.257812 161.5625 C 249.84375 157.339844 246.582031 150.246094 246.582031 150.246094 C 243.128906 144.683594 239.015625 142.136719 237.464844 141.320312 C 236.851562 140.726562 236.222656 140.136719 235.582031 139.546875 C 237.4375 139.792969 239.289062 139.773438 241.089844 139.527344 C 243.261719 141.105469 245.117188 141.546875 245.117188 141.546875 C 245.769531 138.496094 249.589844 136.890625 250.753906 136.132812 C 254.652344 133.613281 256.929688 130.417969 258.464844 126.8125 C 258.625 126.4375 258.769531 126.023438 258.898438 125.582031 C 259.589844 126.425781 260.824219 126.597656 261.722656 125.953125 C 262.242188 125.578125 262.535156 125.011719 262.578125 124.417969 C 262.703125 124.347656 262.828125 124.269531 262.949219 124.183594 C 263.128906 124.050781 263.292969 123.90625 263.445312 123.753906 C 269.257812 129.320312 266.832031 142.640625 276.96875 144.136719 C 270.476562 139.582031 271.414062 133.675781 271.414062 133.675781 C 276.941406 142.304688 282.402344 139.191406 282.402344 139.191406 " fill-opacity="1" fill-rule="nonzero"/><path fill="#008c96" d="M 285.558594 96.023438 L 283.378906 95.707031 L 282.402344 93.734375 L 281.429688 95.707031 L 279.246094 96.023438 L 280.824219 97.558594 L 280.453125 99.722656 L 282.402344 98.699219 L 284.351562 99.722656 L 283.980469 97.558594 L 285.558594 96.023438 " fill-opacity="1" fill-rule="nonzero"/><path fill="#bd2675" d="M 192.6875 154.351562 L 191.714844 152.382812 L 190.738281 154.351562 L 188.558594 154.667969 L 190.136719 156.203125 L 189.765625 158.371094 L 191.714844 157.347656 L 193.664062 158.371094 L 193.292969 156.203125 L 194.871094 154.667969 L 192.6875 154.351562 " fill-opacity="1" fill-rule="nonzero"/><path fill="#bd2675" d="M 220.128906 62.835938 L 221.867188 61.921875 L 223.613281 62.835938 L 223.277344 60.898438 L 224.6875 59.527344 L 222.742188 59.246094 L 221.867188 57.484375 L 221 59.246094 L 219.050781 59.527344 L 220.460938 60.898438 L 220.128906 62.835938 " fill-opacity="1" fill-rule="nonzero"/><path fill="#008c96" d="M 242.945312 80.78125 L 241.761719 78.390625 L 240.582031 80.78125 L 237.941406 81.164062 L 239.851562 83.023438 L 239.398438 85.648438 L 241.761719 84.410156 L 244.125 85.648438 L 243.671875 83.023438 L 245.585938 81.164062 L 242.945312 80.78125 " fill-opacity="1" fill-rule="nonzero"/><path fill="#799e3a" d="M 188.785156 112.746094 L 186.828125 116.699219 L 182.460938 117.332031 L 185.621094 120.410156 L 184.875 124.753906 L 188.785156 122.703125 L 192.691406 124.753906 L 191.945312 120.410156 L 195.105469 117.332031 L 190.738281 116.699219 L 188.785156 112.746094 " fill-opacity="1" fill-rule="nonzero"/><path fill="#5f2777" d="M 279.863281 184.554688 L 277.910156 180.605469 L 275.953125 184.554688 L 271.585938 185.191406 L 274.746094 188.265625 L 274 192.609375 L 277.910156 190.558594 L 281.816406 192.609375 L 281.070312 188.265625 L 284.230469 185.191406 L 279.863281 184.554688 " fill-opacity="1" fill-rule="nonzero"/><path fill="#fdc800" d="M 210.140625 42.308594 L 204.308594 39.246094 L 198.472656 42.308594 L 199.585938 35.824219 L 194.871094 31.234375 L 201.390625 30.285156 L 204.308594 24.386719 L 207.222656 30.285156 L 213.746094 31.234375 L 209.027344 35.824219 L 210.140625 42.308594 " fill-opacity="1" fill-rule="nonzero"/><g clip-path="url(#7f4689814e)"><path fill="#799e3a" d="M 238.117188 21.855469 L 241.761719 18.308594 L 236.726562 17.582031 L 234.472656 13.023438 L 232.222656 17.582031 L 227.183594 18.308594 L 230.828125 21.855469 L 229.96875 26.863281 L 234.472656 24.5 L 238.980469 26.863281 L 238.117188 21.855469 " fill-opacity="1" fill-rule="nonzero"/></g><path fill="#ae3a91" d="M 142.3125 52.828125 L 140.535156 49.230469 L 138.753906 52.828125 L 134.777344 53.40625 L 137.65625 56.203125 L 136.976562 60.160156 L 140.535156 58.292969 L 144.09375 60.160156 L 143.414062 56.203125 L 146.292969 53.40625 L 142.3125 52.828125 " fill-opacity="1" fill-rule="nonzero"/><g fill="#df1c7d" fill-opacity="1"><g transform="translate(8.383082, 344.037091)"><g><path d="M 22.453125 0.625 C 15.765625 0.625 10.875 -1.242188 7.78125 -4.984375 C 4.6875 -8.734375 3.140625 -14.328125 3.140625 -21.765625 C 3.140625 -36.660156 9.285156 -44.109375 21.578125 -44.109375 C 25.804688 -44.109375 29.195312 -43.257812 31.75 -41.5625 C 34.300781 -39.863281 35.910156 -37.363281 36.578125 -34.0625 C 36.910156 -32.351562 36.550781 -31.023438 35.5 -30.078125 C 34.457031 -29.140625 33.078125 -28.671875 31.359375 -28.671875 L 30.609375 -28.671875 C 29.523438 -28.671875 28.703125 -28.859375 28.140625 -29.234375 C 27.578125 -29.609375 27.125 -30.171875 26.78125 -30.921875 C 26.445312 -31.679688 26.070312 -32.582031 25.65625 -33.625 C 25.113281 -34.96875 23.773438 -35.640625 21.640625 -35.640625 C 19.890625 -35.640625 18.5 -35.1875 17.46875 -34.28125 C 16.445312 -33.382812 15.710938 -31.929688 15.265625 -29.921875 C 14.828125 -27.910156 14.609375 -25.191406 14.609375 -21.765625 C 14.609375 -18.085938 14.953125 -15.265625 15.640625 -13.296875 C 16.335938 -11.328125 17.257812 -9.976562 18.40625 -9.25 C 19.5625 -8.519531 20.804688 -8.15625 22.140625 -8.15625 C 23.609375 -8.15625 24.863281 -8.382812 25.90625 -8.84375 C 26.957031 -9.300781 27.484375 -9.929688 27.484375 -10.734375 L 27.484375 -15.5625 L 26.46875 -15.5625 C 22.914062 -15.5625 21.140625 -16.898438 21.140625 -19.578125 C 21.140625 -22.253906 22.914062 -23.59375 26.46875 -23.59375 L 32.1875 -23.59375 C 35.738281 -23.59375 37.515625 -21.8125 37.515625 -18.25 L 37.515625 -9.71875 C 37.515625 -8.425781 37.421875 -7.347656 37.234375 -6.484375 C 37.046875 -5.628906 36.660156 -4.890625 36.078125 -4.265625 C 34.773438 -2.890625 33.066406 -1.726562 30.953125 -0.78125 C 28.847656 0.15625 26.015625 0.625 22.453125 0.625 Z M 22.453125 0.625 "/></g></g></g><g fill="#df1c7d" fill-opacity="1"><g transform="translate(49.032252, 344.037091)"><g><path d="M 16.4375 -8.34375 C 18.28125 -8.382812 20.117188 -8.40625 21.953125 -8.40625 C 23.796875 -8.40625 25.597656 -8.425781 27.359375 -8.46875 C 30.910156 -8.46875 32.6875 -7.066406 32.6875 -4.265625 C 32.6875 -1.421875 30.910156 0 27.359375 0 L 10.03125 0 C 8.320312 0 7.003906 -0.457031 6.078125 -1.375 C 5.160156 -2.300781 4.722656 -3.617188 4.765625 -5.328125 C 4.765625 -8.085938 4.773438 -10.835938 4.796875 -13.578125 C 4.816406 -16.316406 4.828125 -19.046875 4.828125 -21.765625 C 4.828125 -24.484375 4.816406 -27.210938 4.796875 -29.953125 C 4.773438 -32.691406 4.765625 -35.421875 4.765625 -38.140625 C 4.722656 -39.859375 5.160156 -41.175781 6.078125 -42.09375 C 7.003906 -43.007812 8.320312 -43.46875 10.03125 -43.46875 L 26.71875 -43.46875 C 30.28125 -43.46875 32.0625 -42.066406 32.0625 -39.265625 C 32.0625 -36.421875 30.28125 -35 26.71875 -35 C 25.050781 -35.039062 23.347656 -35.0625 21.609375 -35.0625 C 19.878906 -35.0625 18.15625 -35.082031 16.4375 -35.125 L 16.4375 -25.53125 C 17.769531 -25.570312 19.082031 -25.59375 20.375 -25.59375 C 21.675781 -25.59375 22.957031 -25.613281 24.21875 -25.65625 C 27.769531 -25.65625 29.546875 -24.253906 29.546875 -21.453125 C 29.546875 -18.609375 27.769531 -17.1875 24.21875 -17.1875 C 22.957031 -17.226562 21.675781 -17.25 20.375 -17.25 C 19.082031 -17.25 17.769531 -17.269531 16.4375 -17.3125 Z M 16.4375 -8.34375 "/></g></g></g><g fill="#df1c7d" fill-opacity="1"><g transform="translate(84.474833, 344.037091)"><g><path d="M 33.25 -43.46875 C 36.675781 -43.46875 38.347656 -41.691406 38.265625 -38.140625 C 38.222656 -27.222656 38.222656 -16.285156 38.265625 -5.328125 C 38.304688 -3.617188 37.867188 -2.300781 36.953125 -1.375 C 36.035156 -0.457031 34.71875 0 33 0 L 32.0625 0 C 29.132812 0 27.039062 -1.316406 25.78125 -3.953125 L 13.671875 -29.109375 L 13.546875 -29.109375 C 13.628906 -24.671875 13.753906 -20.570312 13.921875 -16.8125 C 14.085938 -13.050781 14.296875 -9.285156 14.546875 -5.515625 C 14.765625 -1.835938 13.175781 0 9.78125 0 C 8.15625 0 6.898438 -0.457031 6.015625 -1.375 C 5.140625 -2.300781 4.722656 -3.617188 4.765625 -5.328125 C 4.804688 -16.285156 4.804688 -27.222656 4.765625 -38.140625 C 4.722656 -39.859375 5.160156 -41.175781 6.078125 -42.09375 C 7.003906 -43.007812 8.320312 -43.46875 10.03125 -43.46875 L 13.234375 -43.46875 C 16.160156 -43.46875 18.253906 -42.148438 19.515625 -39.515625 L 29.296875 -19.140625 L 29.421875 -19.140625 C 29.335938 -22.566406 29.210938 -25.828125 29.046875 -28.921875 C 28.878906 -32.015625 28.691406 -35.023438 28.484375 -37.953125 C 28.234375 -41.628906 29.820312 -43.46875 33.25 -43.46875 Z M 33.25 -43.46875 "/></g></g></g><g fill="#df1c7d" fill-opacity="1"><g transform="translate(127.507763, 344.037091)"><g><path d="M 10.03125 0 C 6.476562 0 4.703125 -1.773438 4.703125 -5.328125 L 4.703125 -38.140625 C 4.703125 -41.691406 6.476562 -43.46875 10.03125 -43.46875 L 11.171875 -43.46875 C 14.722656 -43.46875 16.5 -41.691406 16.5 -38.140625 L 16.5 -5.328125 C 16.5 -1.773438 14.722656 0 11.171875 0 Z M 10.03125 0 "/></g></g></g><g fill="#df1c7d" fill-opacity="1"><g transform="translate(148.710573, 344.037091)"><g><path d="M 21.203125 0.625 C 9.992188 0.625 4.390625 -4.539062 4.390625 -14.875 C 4.390625 -17.96875 4.398438 -21.070312 4.421875 -24.1875 C 4.441406 -27.300781 4.453125 -30.382812 4.453125 -33.4375 C 4.453125 -34.226562 4.453125 -35.007812 4.453125 -35.78125 C 4.453125 -36.5625 4.453125 -37.347656 4.453125 -38.140625 C 4.453125 -41.691406 6.207031 -43.46875 9.71875 -43.46875 L 10.859375 -43.46875 C 12.566406 -43.46875 13.878906 -43.007812 14.796875 -42.09375 C 15.722656 -41.175781 16.164062 -39.859375 16.125 -38.140625 C 16.125 -36.597656 16.125 -35.070312 16.125 -33.5625 C 16.125 -32.050781 16.125 -30.523438 16.125 -28.984375 C 16.125 -26.679688 16.125 -24.390625 16.125 -22.109375 C 16.125 -19.828125 16.144531 -17.539062 16.1875 -15.25 C 16.226562 -12.53125 16.625 -10.613281 17.375 -9.5 C 18.125 -8.394531 19.398438 -7.84375 21.203125 -7.84375 C 23.296875 -7.84375 24.75 -8.394531 25.5625 -9.5 C 26.375 -10.613281 26.78125 -12.53125 26.78125 -15.25 C 26.820312 -17.539062 26.851562 -19.828125 26.875 -22.109375 C 26.894531 -24.390625 26.90625 -26.679688 26.90625 -28.984375 C 26.90625 -30.484375 26.90625 -32 26.90625 -33.53125 C 26.90625 -35.0625 26.882812 -36.578125 26.84375 -38.078125 C 26.800781 -39.835938 27.25 -41.175781 28.1875 -42.09375 C 29.132812 -43.007812 30.46875 -43.46875 32.1875 -43.46875 L 32.25 -43.46875 C 33.957031 -43.46875 35.269531 -43.007812 36.1875 -42.09375 C 37.113281 -41.175781 37.554688 -39.859375 37.515625 -38.140625 C 37.515625 -36.597656 37.515625 -35.070312 37.515625 -33.5625 C 37.515625 -32.050781 37.515625 -30.523438 37.515625 -28.984375 C 37.515625 -26.640625 37.523438 -24.285156 37.546875 -21.921875 C 37.566406 -19.554688 37.578125 -17.207031 37.578125 -14.875 C 37.578125 -4.539062 32.117188 0.625 21.203125 0.625 Z M 21.203125 0.625 "/></g></g></g><g fill="#df1c7d" fill-opacity="1"><g transform="translate(190.677075, 344.037091)"><g><path d="M 18.375 0.625 C 10.007812 0.625 5.035156 -2.21875 3.453125 -7.90625 C 2.992188 -9.625 3.253906 -10.960938 4.234375 -11.921875 C 5.210938 -12.878906 6.5 -13.359375 8.09375 -13.359375 L 8.65625 -13.359375 C 9.65625 -13.359375 10.4375 -13.171875 11 -12.796875 C 11.570312 -12.421875 12.097656 -11.925781 12.578125 -11.3125 C 13.054688 -10.707031 13.648438 -10.007812 14.359375 -9.21875 C 15.242188 -8.382812 16.707031 -7.96875 18.75 -7.96875 C 22.0625 -7.96875 23.71875 -9.242188 23.71875 -11.796875 C 23.71875 -13.253906 23.234375 -14.390625 22.265625 -15.203125 C 21.304688 -16.023438 20.0625 -16.707031 18.53125 -17.25 C 17.007812 -17.789062 15.398438 -18.34375 13.703125 -18.90625 C 12.015625 -19.476562 10.40625 -20.210938 8.875 -21.109375 C 7.351562 -22.003906 6.109375 -23.234375 5.140625 -24.796875 C 4.179688 -26.367188 3.703125 -28.429688 3.703125 -30.984375 C 3.703125 -35.710938 5.082031 -39.082031 7.84375 -41.09375 C 10.601562 -43.101562 14.515625 -44.109375 19.578125 -44.109375 C 24.460938 -44.109375 28.148438 -43.113281 30.640625 -41.125 C 33.128906 -39.132812 34.519531 -36.28125 34.8125 -32.5625 C 34.9375 -30.84375 34.507812 -29.546875 33.53125 -28.671875 C 32.550781 -27.796875 31.265625 -27.359375 29.671875 -27.359375 C 28.085938 -27.359375 26.957031 -27.816406 26.28125 -28.734375 C 25.613281 -29.648438 25.09375 -30.988281 24.71875 -32.75 C 24.425781 -34.082031 23.835938 -35 22.953125 -35.5 C 22.078125 -36.007812 20.890625 -36.265625 19.390625 -36.265625 C 17.585938 -36.265625 16.328125 -35.800781 15.609375 -34.875 C 14.898438 -33.957031 14.546875 -32.742188 14.546875 -31.234375 C 14.546875 -29.773438 14.921875 -28.613281 15.671875 -27.75 C 16.429688 -26.894531 17.4375 -26.21875 18.6875 -25.71875 C 19.945312 -25.21875 21.316406 -24.769531 22.796875 -24.375 C 24.285156 -23.976562 25.769531 -23.523438 27.25 -23.015625 C 28.738281 -22.515625 30.109375 -21.859375 31.359375 -21.046875 C 32.617188 -20.234375 33.625 -19.144531 34.375 -17.78125 C 35.125 -16.425781 35.5 -14.679688 35.5 -12.546875 C 35.5 -8.234375 34.054688 -4.957031 31.171875 -2.71875 C 28.285156 -0.488281 24.019531 0.625 18.375 0.625 Z M 18.375 0.625 "/></g></g></g><g fill="#009cda" fill-opacity="1"><g transform="translate(235.751811, 344.037091)"><g><path d="M 22.453125 0.625 C 15.765625 0.625 10.875 -1.242188 7.78125 -4.984375 C 4.6875 -8.734375 3.140625 -14.328125 3.140625 -21.765625 C 3.140625 -36.660156 9.285156 -44.109375 21.578125 -44.109375 C 25.804688 -44.109375 29.195312 -43.257812 31.75 -41.5625 C 34.300781 -39.863281 35.910156 -37.363281 36.578125 -34.0625 C 36.910156 -32.351562 36.550781 -31.023438 35.5 -30.078125 C 34.457031 -29.140625 33.078125 -28.671875 31.359375 -28.671875 L 30.609375 -28.671875 C 29.523438 -28.671875 28.703125 -28.859375 28.140625 -29.234375 C 27.578125 -29.609375 27.125 -30.171875 26.78125 -30.921875 C 26.445312 -31.679688 26.070312 -32.582031 25.65625 -33.625 C 25.113281 -34.96875 23.773438 -35.640625 21.640625 -35.640625 C 19.890625 -35.640625 18.5 -35.1875 17.46875 -34.28125 C 16.445312 -33.382812 15.710938 -31.929688 15.265625 -29.921875 C 14.828125 -27.910156 14.609375 -25.191406 14.609375 -21.765625 C 14.609375 -18.085938 14.953125 -15.265625 15.640625 -13.296875 C 16.335938 -11.328125 17.257812 -9.976562 18.40625 -9.25 C 19.5625 -8.519531 20.804688 -8.15625 22.140625 -8.15625 C 23.609375 -8.15625 24.863281 -8.382812 25.90625 -8.84375 C 26.957031 -9.300781 27.484375 -9.929688 27.484375 -10.734375 L 27.484375 -15.5625 L 26.46875 -15.5625 C 22.914062 -15.5625 21.140625 -16.898438 21.140625 -19.578125 C 21.140625 -22.253906 22.914062 -23.59375 26.46875 -23.59375 L 32.1875 -23.59375 C 35.738281 -23.59375 37.515625 -21.8125 37.515625 -18.25 L 37.515625 -9.71875 C 37.515625 -8.425781 37.421875 -7.347656 37.234375 -6.484375 C 37.046875 -5.628906 36.660156 -4.890625 36.078125 -4.265625 C 34.773438 -2.890625 33.066406 -1.726562 30.953125 -0.78125 C 28.847656 0.15625 26.015625 0.625 22.453125 0.625 Z M 22.453125 0.625 "/></g></g></g><g fill="#009cda" fill-opacity="1"><g transform="translate(276.400982, 344.037091)"><g><path d="M 23.59375 -35.1875 C 24.175781 -35.0625 24.78125 -34.75 25.40625 -34.25 C 26.03125 -33.75 26.550781 -32.894531 26.96875 -31.6875 C 27.1875 -30.96875 27.296875 -30.234375 27.296875 -29.484375 C 27.296875 -28.734375 27.1875 -28.003906 26.96875 -27.296875 C 26.550781 -25.660156 25.925781 -24.582031 25.09375 -24.0625 C 24.257812 -23.539062 23.441406 -23.425781 22.640625 -23.71875 C 21.847656 -23.96875 21.015625 -24.09375 20.140625 -24.09375 C 17.421875 -24.09375 15.472656 -22.359375 14.296875 -18.890625 L 14.296875 -17.375 C 14.296875 -16.707031 14.285156 -16.015625 14.265625 -15.296875 C 14.242188 -14.585938 14.234375 -13.898438 14.234375 -13.234375 C 14.234375 -11.941406 14.242188 -10.65625 14.265625 -9.375 C 14.285156 -8.101562 14.316406 -6.796875 14.359375 -5.453125 C 14.484375 -1.816406 12.75 0 9.15625 0 L 8.96875 0 C 5.414062 0 3.640625 -1.773438 3.640625 -5.328125 C 3.679688 -7.335938 3.710938 -9.332031 3.734375 -11.3125 C 3.753906 -13.300781 3.765625 -15.320312 3.765625 -17.375 C 3.765625 -19.46875 3.753906 -21.492188 3.734375 -23.453125 C 3.710938 -25.421875 3.679688 -27.410156 3.640625 -29.421875 C 3.640625 -32.972656 5.332031 -34.75 8.71875 -34.75 C 12.101562 -34.75 13.796875 -33.410156 13.796875 -30.734375 L 13.796875 -26.65625 L 13.984375 -26.53125 C 14.492188 -29.125 15.445312 -31.234375 16.84375 -32.859375 C 18.25 -34.492188 19.972656 -35.3125 22.015625 -35.3125 C 22.347656 -35.3125 22.648438 -35.300781 22.921875 -35.28125 C 23.203125 -35.257812 23.425781 -35.226562 23.59375 -35.1875 Z M 23.59375 -35.1875 "/></g></g></g><g fill="#009cda" fill-opacity="1"><g transform="translate(303.751357, 344.037091)"><g><path d="M 8.90625 -39.078125 C 6.601562 -39.078125 4.941406 -39.492188 3.921875 -40.328125 C 2.898438 -41.171875 2.390625 -42.535156 2.390625 -44.421875 C 2.390625 -46.296875 2.898438 -47.648438 3.921875 -48.484375 C 4.941406 -49.328125 6.601562 -49.75 8.90625 -49.75 C 11.25 -49.75 12.921875 -49.328125 13.921875 -48.484375 C 14.929688 -47.648438 15.4375 -46.296875 15.4375 -44.421875 C 15.4375 -42.535156 14.929688 -41.171875 13.921875 -40.328125 C 12.921875 -39.492188 11.25 -39.078125 8.90625 -39.078125 Z M 9.09375 0 C 5.539062 0 3.765625 -1.773438 3.765625 -5.328125 L 3.765625 -10.671875 C 3.722656 -15.304688 3.703125 -19.097656 3.703125 -22.046875 C 3.703125 -24.992188 3.679688 -27.453125 3.640625 -29.421875 C 3.640625 -32.929688 5.414062 -34.6875 8.96875 -34.6875 L 9.03125 -34.6875 C 12.582031 -34.6875 14.359375 -32.910156 14.359375 -29.359375 C 14.359375 -27.179688 14.359375 -24.898438 14.359375 -22.515625 C 14.359375 -20.140625 14.335938 -17.988281 14.296875 -16.0625 C 14.253906 -14.257812 14.242188 -12.46875 14.265625 -10.6875 C 14.285156 -8.914062 14.296875 -7.128906 14.296875 -5.328125 C 14.378906 -1.773438 12.644531 0 9.09375 0 Z M 9.09375 0 "/></g></g></g><g fill="#009cda" fill-opacity="1"><g transform="translate(321.566742, 344.037091)"><g><path d="M 29.109375 -45.734375 C 32.660156 -45.734375 34.4375 -43.957031 34.4375 -40.40625 C 34.394531 -36.300781 34.351562 -32.25 34.3125 -28.25 C 34.269531 -24.257812 34.25 -20.195312 34.25 -16.0625 C 34.25 -14.21875 34.257812 -12.414062 34.28125 -10.65625 C 34.300781 -8.90625 34.332031 -7.128906 34.375 -5.328125 C 34.457031 -1.773438 33.035156 0 30.109375 0 C 27.179688 0 25.507812 -0.601562 25.09375 -1.8125 C 25.007812 -2.15625 24.925781 -2.484375 24.84375 -2.796875 C 24.757812 -3.109375 24.675781 -3.410156 24.59375 -3.703125 C 23.757812 -2.566406 22.617188 -1.550781 21.171875 -0.65625 C 19.734375 0.238281 17.945312 0.6875 15.8125 0.6875 C 13.300781 0.6875 11.019531 0.164062 8.96875 -0.875 C 6.914062 -1.925781 5.285156 -3.703125 4.078125 -6.203125 C 2.867188 -8.710938 2.265625 -12.164062 2.265625 -16.5625 C 2.265625 -20.695312 2.859375 -24.144531 4.046875 -26.90625 C 5.234375 -29.664062 6.84375 -31.734375 8.875 -33.109375 C 10.90625 -34.492188 13.15625 -35.1875 15.625 -35.1875 C 17.332031 -35.1875 18.863281 -34.769531 20.21875 -33.9375 C 21.582031 -33.101562 22.6875 -31.972656 23.53125 -30.546875 C 23.488281 -32.179688 23.46875 -33.8125 23.46875 -35.4375 C 23.46875 -37.070312 23.445312 -38.726562 23.40625 -40.40625 C 23.40625 -43.957031 25.179688 -45.734375 28.734375 -45.734375 Z M 18.75 -8.15625 C 19.84375 -8.15625 20.742188 -8.3125 21.453125 -8.625 C 22.160156 -8.9375 22.789062 -9.40625 23.34375 -10.03125 C 23.34375 -11.039062 23.351562 -12.035156 23.375 -13.015625 C 23.394531 -13.992188 23.425781 -15.007812 23.46875 -16.0625 C 23.507812 -17.269531 23.53125 -18.476562 23.53125 -19.6875 C 23.53125 -20.90625 23.53125 -22.101562 23.53125 -23.28125 C 23.144531 -24.570312 22.492188 -25.46875 21.578125 -25.96875 C 20.660156 -26.46875 19.632812 -26.71875 18.5 -26.71875 C 17.414062 -26.71875 16.410156 -26.457031 15.484375 -25.9375 C 14.566406 -25.414062 13.828125 -24.472656 13.265625 -23.109375 C 12.703125 -21.753906 12.421875 -19.78125 12.421875 -17.1875 C 12.421875 -13.882812 12.972656 -11.550781 14.078125 -10.1875 C 15.191406 -8.832031 16.75 -8.15625 18.75 -8.15625 Z M 18.75 -8.15625 "/></g></g></g><g clip-path="url(#b2c166ea82)"><path fill="#ffffff" d="M 303.210938 286.753906 L 323.628906 286.753906 L 323.628906 308.367188 L 303.210938 308.367188 Z M 303.210938 286.753906 " fill-opacity="1" fill-rule="nonzero"/></g><g clip-path="url(#06440a81ef)"><path fill="#fdc800" d="M 313.417969 293.8125 L 315.640625 298.804688 L 321.078125 299.378906 L 317.015625 303.035156 L 318.152344 308.382812 L 313.417969 305.652344 L 308.683594 308.382812 L 309.816406 303.035156 L 305.757812 299.378906 L 311.191406 298.804688 L 313.417969 293.8125 " fill-opacity="1" fill-rule="nonzero"/></g></svg>